<svg xmlns="http://www.w3.org/2000/svg" viewBox="0 0 100 100" width="100%" height="100%">
  <path fill="#4285F4" d="M96 51.5c0-3.3-.3-6.4-.8-9.5H50v18H75.8c-1.1 5.8-4.4 10.7-9.3 14v11.6h15C90.3 77.2 96 65.5 96 51.5z"/>
  <path fill="#34A853" d="M50 98c13 0 23.8-4.3 31.8-11.6l-15-11.6c-4.2 2.8-9.6 4.5-16.8 4.5-12.9 0-23.8-8.7-27.7-20.4H7.1v12C15.2 87.2 31.4 98 50 98z"/>
  <path fill="#FBBC05" d="M22.3 58.9c-1-3-1.6-6.2-1.6-9.5s.6-6.5 1.6-9.5V27.9H7.1C2.6 36.9 0 46.9 0 57.5s2.6 20.6 7.1 29.6l15.2-12.1z"/>
  <path fill="#EA4335" d="M50 20.6c7 0 13.4 2.4 18.4 7.2l13.8-13.8C73.8 5.6 63 2 50 2 31.4 2 15.2 12.8 7.1 32l15.2 12.1c3.9-11.7 14.8-23.5 27.7-23.5z"/>
</svg>
